<svg width="107" height="91" viewBox="0 0 107 91" fill="none" xmlns="http://www.w3.org/2000/svg">
<path d="M59.3433 57.3463C64.6243 55.1672 69.5049 56.2154 74.1854 58.1904C75.5452 56.8297 75.0861 55.3714 75.091 54.0703C75.1388 41.2944 75.122 28.5183 75.1499 15.7424C75.1526 14.4843 75.146 13.1775 75.4638 11.9782C76.3091 8.78797 79.4999 7.6533 81.8616 9.94913C89.5342 17.4077 97.1247 24.9573 104.543 32.6683C107.52 35.7633 107.167 39.895 106.563 43.8219C106.29 45.5939 105.05 46.6472 103.201 46.7414C101.172 46.8447 99.3617 45.6733 99.5278 43.8894C100.202 36.6443 94.4749 33.5868 90.5571 29.3297C88.3992 26.9849 86.1822 24.6943 83.9659 22.3518C82.4496 23.8774 82.9305 25.2152 82.9273 26.4075C82.8844 42.176 82.9487 57.9449 82.8578 73.7131C82.8057 82.7559 76.2631 90.1035 67.9261 90.783C57.8586 91.6036 49.9917 85.8073 48.36 76.3668C47.0078 68.5437 51.1447 61.2454 59.3433 57.3463ZM57.9136 79.678C58.6931 80.3515 59.3987 81.1448 60.2643 81.6786C65.009 84.604 71.1838 83.2024 73.8603 78.6511C76.6155 73.9658 74.9784 67.7817 70.2855 65.1478C66.3555 62.9421 61.8175 63.6182 58.5816 66.8914C55.3925 70.1172 55.0395 74.5768 57.9136 79.678Z" fill="white"/>
<path d="M2.01895 2.36768C3.66451 0.726155 5.52951 0.736055 7.37192 0.734558C26.2148 0.719255 45.0578 0.722644 63.9007 0.699728C66.4661 0.696608 68.8215 1.03353 69.6319 3.9632C70.4739 7.00755 68.6613 9.2257 65.1816 9.26234C57.8291 9.33979 50.4752 9.30148 43.1219 9.30024C30.828 9.29816 18.534 9.32148 6.24039 9.26374C1.65499 9.2422 0.078733 6.75521 2.01895 2.36768Z" fill="white"/>
<path d="M46.658 35.5632C33.1094 35.5599 19.8946 35.5534 6.67972 35.5558C4.93469 35.5561 3.23403 35.5537 1.97888 33.9999C0.048002 31.6096 0.969242 28.2937 3.98238 27.3761C5.16188 27.017 6.4754 26.9976 7.72823 26.995C21.0579 26.9672 34.3877 26.9692 47.7175 26.9804C48.7463 26.9813 49.8168 26.9571 50.7953 27.2175C53.0498 27.8176 54.4273 29.3757 54.2338 31.7319C54.0403 34.0888 52.5147 35.4075 50.0936 35.521C49.0612 35.5694 48.0257 35.5509 46.658 35.5632Z" fill="white"/>
<path d="M5.55437 61.7915C2.47816 61.5938 0.953725 60.0383 1.03218 57.3524C1.11496 54.5179 3.18235 53.3444 5.70254 53.3191C15.1112 53.2247 24.5218 53.2186 33.9307 53.2993C36.7514 53.3235 38.5636 54.959 38.4341 57.8472C38.3115 60.5831 36.4476 61.8011 33.7569 61.7994C24.4615 61.7937 15.166 61.7987 5.55437 61.7915Z" fill="white"/>
<path d="M2.01068 81.1264C2.85345 80.2182 3.68871 79.7272 4.60758 79.7173C11.1312 79.6468 17.6611 79.4785 24.1766 79.7013C26.624 79.785 28.0524 81.7636 27.8546 84.2744C27.6521 86.8452 25.9444 88.0523 23.395 88.0541C17.5521 88.0582 11.7079 88.1332 5.86681 88.0293C1.60031 87.9534 0.136014 85.41 2.01068 81.1264Z" fill="white"/>
</svg>
