<svg width="72" height="86" viewBox="0 0 72 86" fill="none" xmlns="http://www.w3.org/2000/svg">
<path d="M42.9521 0.72168L16.6026 27.0711H0.792969V58.6904H16.6026L42.9521 85.0399V0.72168ZM58.8441 23.8596C58.6782 23.886 58.5133 23.9071 58.35 23.9413C56.0877 24.0757 54.0188 25.8346 53.5213 28.0455C53.0238 30.2565 54.1402 32.7318 56.1268 33.8224C61.2219 36.764 62.8562 43.0547 59.9145 48.1499C58.9893 49.7522 57.7293 51.0125 56.1268 51.9376C53.7124 53.3172 52.7709 56.7694 54.1506 59.1838C55.5302 61.5982 58.9823 62.5397 61.3967 61.16C64.6009 59.3101 67.2868 56.6243 69.1368 53.4199C74.9266 43.3918 71.4248 30.3898 61.3967 24.6C60.6273 24.1416 59.7394 23.8844 58.8441 23.8596Z" fill="white"/>
</svg>
