<svg width="88" height="86" viewBox="0 0 88 86" fill="none" xmlns="http://www.w3.org/2000/svg">
<path d="M42.6825 0.72168L16.3331 27.0711H0.523438V58.6904H16.3331L42.6825 85.0399V0.72168ZM65.5736 10.1908C64.4307 10.2919 63.3519 10.7632 62.5012 11.5331C61.6504 12.303 61.0742 13.3295 60.8599 14.4567C60.6456 15.5839 60.8051 16.7502 61.314 17.7785C61.823 18.8069 62.6536 19.6411 63.6797 20.1544C76.3365 27.4616 80.6212 43.3162 73.3138 55.9731C71.001 59.9788 67.6856 63.2942 63.6797 65.6072C63.0742 65.964 62.5449 66.4366 62.122 66.998C61.6991 67.5594 61.3909 68.1988 61.215 68.8793C61.0392 69.5598 60.9991 70.2682 61.097 70.9642C61.195 71.6602 61.429 72.33 61.7859 72.9356C62.1427 73.5411 62.6153 74.0704 63.1767 74.4933C63.7381 74.9162 64.3774 75.2245 65.0579 75.4004C65.7384 75.5763 66.4468 75.6164 67.1429 75.5184C67.8389 75.4205 68.5088 75.1863 69.1143 74.8295C74.7219 71.5916 79.2985 67.0151 82.536 61.4077C92.6915 43.8179 86.7041 21.0874 69.1143 10.9321C68.1975 10.3816 67.1349 10.1231 66.0677 10.1908C65.9031 10.1831 65.7382 10.1831 65.5736 10.1908ZM58.5745 23.8596C58.4086 23.879 58.2438 23.9063 58.0805 23.9413C56.9394 24.0092 55.8514 24.4464 54.9804 25.1867C54.1094 25.927 53.5027 26.9303 53.2518 28.0455C53.0009 29.1607 53.1193 30.3273 53.5893 31.3693C54.0593 32.4113 54.8552 33.2722 55.8572 33.8224C60.9524 36.764 62.5867 43.0547 59.645 48.1499C58.7198 49.7522 57.4597 51.0125 55.8572 51.9376C55.2517 52.2836 54.7202 52.7456 54.2932 53.297C53.8662 53.8484 53.5519 54.4785 53.3684 55.1513C53.1849 55.8242 53.1357 56.5267 53.2237 57.2186C53.3116 57.9104 53.535 58.5783 53.881 59.1838C54.2271 59.7894 54.689 60.3207 55.2404 60.7477C55.7918 61.1747 56.4219 61.4889 57.0948 61.6724C57.7677 61.8559 58.4701 61.9051 59.162 61.8172C59.8538 61.7292 60.5216 61.5061 61.1271 61.16C64.3314 59.3101 67.0173 56.6243 68.8673 53.4199C74.657 43.3918 71.1553 30.3898 61.1271 24.6C60.3536 24.139 59.4747 23.8845 58.5745 23.8596Z" fill="black"/>
</svg>
